<svg xmlns="http://www.w3.org/2000/svg" viewBox="0 0 2200 2200" width="2200" height="2200" style="width: 100%; height: 100%; transform: translate3d(0px, 0px, 0px);" preserveAspectRatio="xMidYMid meet"><defs><clipPath id="__lottie_element_2"><rect width="2200" height="2200" x="0" y="0"></rect></clipPath></defs><g clip-path="url(#__lottie_element_2)"><g style="display: block;" transform="matrix(2.790680408477783,0.5784485936164856,-0.5784485936164856,2.790680408477783,652.1651611328125,408.913330078125)" opacity="1"><g opacity="1" transform="matrix(1,0,0,1,211.48399353027344,189.49899291992188)"><path fill="rgb(29,19,6)" fill-opacity="1" d=" M190.67300415039062,-17.20599937438965 C190.67300415039062,-17.20599937438965 186.531005859375,-18.3439998626709 186.531005859375,-18.3439998626709 C186.531005859375,-18.3439998626709 186.531005859375,18.55699920654297 186.531005859375,18.55699920654297 C186.531005859375,18.55699920654297 186.531005859375,-16.520999908447266 186.531005859375,-16.520999908447266 C186.531005859375,-19.45400047302246 184.6280059814453,-22.191999435424805 181.45799255371094,-23.819000244140625 C181.45799255371094,-23.819000244140625 176.4759979248047,-26.374000549316406 176.4759979248047,-26.374000549316406 C160.375,-110.06600189208984 87.5270004272461,-173.24899291992188 0.06800000369548798,-173.24899291992188 C-87.36499786376953,-173.24899291992188 -160.19700622558594,-110.10399627685547 -176.3280029296875,-26.450000762939453 C-176.3280029296875,-26.450000762939453 -181.45599365234375,-23.819000244140625 -181.45599365234375,-23.819000244140625 C-184.6269989013672,-22.191999435424805 -186.531005859375,-19.45400047302246 -186.531005859375,-16.520999908447266 C-186.531005859375,-16.520999908447266 -186.52999877929688,33.84199905395508 -186.52999877929688,33.84199905395508 C-186.52999877929688,33.84199905395508 -186.531005859375,-18.3439998626709 -186.531005859375,-18.3439998626709 C-186.531005859375,-18.3439998626709 -190.67100524902344,-17.20599937438965 -190.67100524902344,-17.20599937438965 C-193.4080047607422,-16.45400047302246 -195.23399353027344,-14.458999633789062 -195.23399353027344,-12.223999977111816 C-195.23399353027344,-12.223999977111816 -195.23300170898438,51.12799835205078 -195.23300170898438,51.12799835205078 C-195.23300170898438,53.3650016784668 -193.40699768066406,55.35900115966797 -190.6699981689453,56.111000061035156 C-190.6699981689453,56.111000061035156 -186.52999877929688,57.25 -186.52999877929688,57.25 C-186.52999877929688,57.25 -186.52999877929688,55.68899917602539 -186.52999877929688,55.68899917602539 C-186.52999877929688,58.47600173950195 -184.8090057373047,61.09600067138672 -181.8939971923828,62.749000549316406 C-181.8939971923828,62.749000549316406 -168.81300354003906,70.16699981689453 -168.81300354003906,70.16699981689453 C-168.81300354003906,70.16699981689453 -158.2449951171875,67.17400360107422 -158.2449951171875,67.17400360107422 C-158.2449951171875,67.17400360107422 -158.2449951171875,53.71099853515625 -158.2449951171875,53.71099853515625 C-138.66799926757812,122.70800018310547 -75.2020034790039,173.24899291992188 0.06800000369548798,173.24899291992188 C75.1729965209961,173.24899291992188 138.52099609375,122.927001953125 158.2469940185547,54.16299819946289 C158.2469940185547,54.16299819946289 158.24600219726562,67.17400360107422 158.24600219726562,67.17400360107422 C158.24600219726562,67.17400360107422 168.81399536132812,70.16699981689453 168.81399536132812,70.16699981689453 C168.81399536132812,70.16699981689453 181.89500427246094,62.749000549316406 181.89500427246094,62.749000549316406 C184.80999755859375,61.09600067138672 186.531005859375,58.47600173950195 186.531005859375,55.68899917602539 C186.531005859375,55.68899917602539 186.531005859375,57.25 186.531005859375,57.25 C186.531005859375,57.25 190.67100524902344,56.111000061035156 190.67100524902344,56.111000061035156 C193.40699768066406,55.35900115966797 195.23399353027344,53.3650016784668 195.23399353027344,51.12799835205078 C195.23399353027344,51.12799835205078 195.23399353027344,-12.223999977111816 195.23399353027344,-12.223999977111816 C195.23399353027344,-14.458999633789062 193.40899658203125,-16.45400047302246 190.67300415039062,-17.20599937438965z"></path></g><g opacity="1" transform="matrix(1,0,0,1,211.48500061035156,189.49899291992188)"><path fill="rgb(29,19,6)" fill-opacity="1" d=" M0.06599999964237213,189.24899291992188 C-40.01900100708008,189.24899291992188 -77.97799682617188,176.38600158691406 -109.71099853515625,152.0500030517578 C-132.68800354003906,134.42999267578125 -151.18099975585938,111.31300354003906 -163.4409942626953,85.2750015258789 C-163.4409942626953,85.2750015258789 -170.88800048828125,87.38500213623047 -170.88800048828125,87.38500213623047 C-170.88800048828125,87.38500213623047 -189.78700256347656,76.66699981689453 -189.78700256347656,76.66699981689453 C-192.52699279785156,75.11399841308594 -194.88800048828125,73.16799926757812 -196.80799865722656,70.93599700927734 C-205.51300048828125,67.76499938964844 -211.23300170898438,60.02299880981445 -211.23300170898438,51.12900161743164 C-211.23300170898438,51.12900161743164 -211.23399353027344,-12.222999572753906 -211.23399353027344,-12.222999572753906 C-211.23399353027344,-21.246999740600586 -205.34800720214844,-29.08300018310547 -196.42799377441406,-32.16400146484375 C-194.7239990234375,-34.07099914550781 -192.7010040283203,-35.75299835205078 -190.406005859375,-37.13800048828125 C-169.68899536132812,-125.74099731445312 -90.80000305175781,-189.24899291992188 0.06599999964237213,-189.24899291992188 C90.97699737548828,-189.24899291992188 169.8780059814453,-125.70099639892578 190.55999755859375,-37.042999267578125 C192.79100036621094,-35.676998138427734 194.76199340820312,-34.027000427246094 196.42599487304688,-32.165000915527344 C205.3470001220703,-29.08300018310547 211.23399353027344,-21.246999740600586 211.23399353027344,-12.222999572753906 C211.23399353027344,-12.222999572753906 211.23399353027344,51.12900161743164 211.23399353027344,51.12900161743164 C211.23399353027344,60.02299880981445 205.51300048828125,67.76499938964844 196.8070068359375,70.93599700927734 C194.88699340820312,73.16899871826172 192.5260009765625,75.11399841308594 189.78599548339844,76.66799926757812 C189.78599548339844,76.66799926757812 170.88699340820312,87.38400268554688 170.88699340820312,87.38400268554688 C170.88699340820312,87.38400268554688 163.55599975585938,85.30799865722656 163.55599975585938,85.30799865722656 C151.25900268554688,111.40899658203125 132.6959991455078,134.572998046875 109.64299774169922,152.2030029296875 C77.94999694824219,176.43800354003906 40.05799865722656,189.24899291992188 0.06599999964237213,189.24899291992188z M-161.78399658203125,-17.374000549316406 C-161.78399658203125,-17.374000549316406 -142.85299682617188,49.34400177001953 -142.85299682617188,49.34400177001953 C-124.82599639892578,112.87699890136719 -66.05599975585938,157.24899291992188 0.06700000166893005,157.24899291992188 C65.98899841308594,157.24899291992188 124.70999908447266,113.04399871826172 142.86599731445312,49.750999450683594 C142.86599731445312,49.750999450683594 161.9980010986328,-16.940000534057617 161.9980010986328,-16.940000534057617 C161.9980010986328,-16.940000534057617 160.76499938964844,-23.35099983215332 160.76499938964844,-23.35099983215332 C145.83799743652344,-100.93699645996094 78.25499725341797,-157.24899291992188 0.06700000166893005,-157.24899291992188 C-78.08699798583984,-157.24899291992188 -145.6649932861328,-100.96499633789062 -160.6179962158203,-23.420000076293945 C-160.6179962158203,-23.420000076293945 -161.78399658203125,-17.374000549316406 -161.78399658203125,-17.374000549316406z M-186.1009979248047,55.68899917602539 C-186.1009979248047,55.68899917602539 -174.24600219726562,55.68899917602539 -174.24600219726562,55.68899917602539 C-174.24600219726562,55.68899917602539 -174.24600219726562,33.84299850463867 -174.24600219726562,33.84299850463867 C-174.24600219726562,33.84299850463867 -179.23300170898438,33.84299850463867 -179.23300170898438,33.84299850463867 C-179.23300170898438,33.84299850463867 -179.23300170898438,51.12799835205078 -179.23300170898438,51.12799835205078 C-179.23300170898438,47.91899871826172 -180.5290069580078,44.93000030517578 -182.5919952392578,42.92499923706055 C-182.5919952392578,42.92499923706055 -186.1009979248047,55.68899917602539 -186.1009979248047,55.68899917602539z M174.24600219726562,55.6870002746582 C174.24600219726562,55.6870002746582 186.1009979248047,55.6879997253418 186.1009979248047,55.6879997253418 C186.1009979248047,55.6879997253418 182.59300231933594,42.92399978637695 182.59300231933594,42.92399978637695 C180.5290069580078,44.92900085449219 179.23399353027344,47.91899871826172 179.23399353027344,51.12900161743164 C179.23399353027344,51.12900161743164 179.23399353027344,18.55699920654297 179.23399353027344,18.55699920654297 C179.23399353027344,18.55699920654297 174.2469940185547,18.55699920654297 174.2469940185547,18.55699920654297 C174.2469940185547,18.55699920654297 174.24600219726562,55.6870002746582 174.24600219726562,55.6870002746582z"></path></g><g opacity="1" transform="matrix(1,0,0,1,211.55099487304688,198.20399475097656)"><path fill="rgb(255,236,212)" fill-opacity="1" d=" M164.54400634765625,0 C164.54400634765625,90.875 90.875,164.54400634765625 0,164.54400634765625 C-90.875,164.54400634765625 -164.54400634765625,90.875 -164.54400634765625,0 C-164.54400634765625,-90.875 -90.875,-164.54400634765625 0,-164.54400634765625 C90.875,-164.54400634765625 164.54400634765625,-90.875 164.54400634765625,0z"></path></g><g opacity="1" transform="matrix(1,0,0,1,0,0)"><g opacity="1" transform="matrix(1,0,0,1,211.55099487304688,92.59100341796875)"><path fill="rgb(169,120,59)" fill-opacity="1" d=" M172.68600463867188,81.83999633789062 C161.1719970703125,-5.202000141143799 86.93299865722656,-70.83999633789062 0,-70.83999633789062 C-86.93199920654297,-70.83999633789062 -161.17100524902344,-5.202000141143799 -172.68499755859375,81.83999633789062 C-172.68499755859375,81.83999633789062 -183.58999633789062,80.39900207519531 -183.58999633789062,80.39900207519531 C-177.6959991455078,35.8390007019043 -155.9949951171875,-5.1620001792907715 -122.48699951171875,-35.04999923706055 C-88.65899658203125,-65.2229995727539 -45.15800094604492,-81.83999633789062 0,-81.83999633789062 C45.159000396728516,-81.83999633789062 88.65899658203125,-65.2229995727539 122.48699951171875,-35.04999923706055 C155.99600219726562,-5.1620001792907715 177.6959991455078,35.8390007019043 183.58999633789062,80.39900207519531 C183.58999633789062,80.39900207519531 172.68600463867188,81.83999633789062 172.68600463867188,81.83999633789062z"></path></g><g opacity="1" transform="matrix(1,0,0,1,402.36700439453125,208.95199584960938)"><path fill="rgb(169,120,59)" fill-opacity="1" d=" M-6.409999847412109,-38.63600158691406 C-6.409999847412109,-38.63600158691406 -0.20999999344348907,-36.659000396728516 -0.20999999344348907,-36.659000396728516 C2.5250000953674316,-35.90700149536133 4.3520002365112305,-33.9119987487793 4.3520002365112305,-31.676000595092773 C4.3520002365112305,-31.676000595092773 4.35099983215332,31.676000595092773 4.35099983215332,31.676000595092773 C4.35099983215332,33.9119987487793 2.5250000953674316,35.90700149536133 -0.210999995470047,36.659000396728516 C-0.210999995470047,36.659000396728516 -6.406000137329102,37.97200012207031 -6.406000137329102,37.97200012207031 C-6.406000137329102,37.97200012207031 -6.409999847412109,-38.63600158691406 -6.409999847412109,-38.63600158691406z"></path></g><g opacity="1" transform="matrix(1,0,0,1,389.156005859375,209.42999267578125)"><path fill="rgb(169,120,59)" fill-opacity="1" d=" M-8.859000205993652,50.236000061035156 C-8.859000205993652,50.236000061035156 4.2230000495910645,42.81800079345703 4.2230000495910645,42.81800079345703 C7.138000011444092,41.16400146484375 8.857999801635742,38.54499816894531 8.857999801635742,35.757999420166016 C8.857999801635742,35.757999420166016 8.859000205993652,-36.45199966430664 8.859000205993652,-36.45199966430664 C8.859000205993652,-39.3849983215332 6.954999923706055,-42.12200164794922 3.7850000858306885,-43.749000549316406 C3.7850000858306885,-43.749000549316406 -8.857999801635742,-50.236000061035156 -8.857999801635742,-50.236000061035156 C-8.857999801635742,-50.236000061035156 -8.859000205993652,50.236000061035156 -8.859000205993652,50.236000061035156z"></path></g><g opacity="1" transform="matrix(1,0,0,1,375.0140075683594,209.43099975585938)"><path fill="rgb(169,120,59)" fill-opacity="1" d=" M9.005000114440918,-51.32500076293945 C9.005000114440918,-51.32500076293945 5.701000213623047,50.262001037597656 5.701000213623047,50.262001037597656 C5.701000213623047,50.262001037597656 -5.284999847412109,47.242000579833984 -5.284999847412109,47.242000579833984 C-5.284999847412109,47.242000579833984 -5.283999919891357,-46.87699890136719 -5.283999919891357,-46.87699890136719 C-5.283999919891357,-46.87699890136719 9.005000114440918,-51.32500076293945 9.005000114440918,-51.32500076293945z"></path></g><g opacity="1" transform="matrix(1,0,0,1,20.601999282836914,208.95199584960938)"><path fill="rgb(169,120,59)" fill-opacity="1" d=" M7.14300012588501,-38.36000061035156 C7.14300012588501,-38.36000061035156 0.20999999344348907,-36.659000396728516 0.20999999344348907,-36.659000396728516 C-2.5260000228881836,-35.90700149536133 -4.3520002365112305,-33.9119987487793 -4.3520002365112305,-31.676000595092773 C-4.3520002365112305,-31.676000595092773 -4.35099983215332,31.676000595092773 -4.35099983215332,31.676000595092773 C-4.3520002365112305,33.9119987487793 -2.5250000953674316,35.90700149536133 0.210999995470047,36.659000396728516 C0.210999995470047,36.659000396728516 6.629000186920166,38.33300018310547 6.629000186920166,38.33300018310547 C6.629000186920166,38.33300018310547 7.14300012588501,-38.36000061035156 7.14300012588501,-38.36000061035156z"></path></g><g opacity="1" transform="matrix(1,0,0,1,33.81100082397461,209.42999267578125)"><path fill="rgb(169,120,59)" fill-opacity="1" d=" M8.859000205993652,50.236000061035156 C8.859000205993652,50.236000061035156 -4.2220001220703125,42.81800079345703 -4.2220001220703125,42.81800079345703 C-7.13700008392334,41.16400146484375 -8.857999801635742,38.54499816894531 -8.857999801635742,35.757999420166016 C-8.857999801635742,35.757999420166016 -8.859000205993652,-36.45199966430664 -8.859000205993652,-36.45199966430664 C-8.859000205993652,-39.3849983215332 -6.954999923706055,-42.12200164794922 -3.7850000858306885,-43.749000549316406 C-3.7850000858306885,-43.749000549316406 8.857999801635742,-50.236000061035156 8.857999801635742,-50.236000061035156 C8.857999801635742,-50.236000061035156 8.859000205993652,50.236000061035156 8.859000205993652,50.236000061035156z"></path></g><g opacity="1" transform="matrix(1,0,0,1,47.95399856567383,209.43099975585938)"><path fill="rgb(169,120,59)" fill-opacity="1" d=" M-7.285999774932861,-50.38999938964844 C-7.285999774932861,-50.38999938964844 -5.914999961853027,49.965999603271484 -5.914999961853027,49.965999603271484 C-5.914999961853027,49.965999603271484 5.284999847412109,47.242000579833984 5.284999847412109,47.242000579833984 C5.284999847412109,47.242000579833984 5.2829999923706055,-46.87699890136719 5.2829999923706055,-46.87699890136719 C5.2829999923706055,-46.87699890136719 -7.285999774932861,-50.38999938964844 -7.285999774932861,-50.38999938964844z"></path></g></g></g><g style="display: block;" transform="matrix(2.790680408477783,0.5784485936164856,-0.5784485936164856,2.790680408477783,872.816162109375,963.6246948242188)" opacity="1"><g opacity="1" transform="matrix(1,0,0,1,15.336000442504883,10.756999969482422)"><path fill="rgb(29,19,6)" fill-opacity="1" d=" M10.506999969482422,-0.0010000000474974513 C10.506999969482422,5.802000045776367 5.802000045776367,10.505999565124512 -0.0010000000474974513,10.505999565124512 C-5.803999900817871,10.505999565124512 -10.506999969482422,5.802000045776367 -10.506999969482422,-0.0010000000474974513 C-10.506999969482422,-5.803999900817871 -5.803999900817871,-10.505999565124512 -0.0010000000474974513,-10.505999565124512 C5.802000045776367,-10.505999565124512 10.506999969482422,-5.803999900817871 10.506999969482422,-0.0010000000474974513z"></path></g><g opacity="1" transform="matrix(1,0,0,1,131.63400268554688,10.756999969482422)"><path fill="rgb(29,19,6)" fill-opacity="1" d=" M10.506999969482422,-0.0010000000474974513 C10.506999969482422,5.802000045776367 5.802000045776367,10.505999565124512 -0.0010000000474974513,10.505999565124512 C-5.802999973297119,10.505999565124512 -10.506999969482422,5.802000045776367 -10.506999969482422,-0.0010000000474974513 C-10.506999969482422,-5.803999900817871 -5.802999973297119,-10.505999565124512 -0.0010000000474974513,-10.505999565124512 C5.802000045776367,-10.505999565124512 10.506999969482422,-5.803999900817871 10.506999969482422,-0.0010000000474974513z"></path></g><g opacity="1" transform="matrix(1,0,0,1,70.00700378417969,111.08000183105469)"><path fill="rgb(215,127,18)" fill-opacity="1" d=" M59.584999084472656,-18.47100067138672 C49.7869987487793,-21.951000213623047 26.69499969482422,-28.621999740600586 0.08799999952316284,-29.131999969482422 C-24.788999557495117,-29.608999252319336 -49.481998443603516,-22.780000686645508 -61.13399887084961,-18.597999572753906 C-52.862998962402344,7.769000053405762 -31.21299934387207,28.423999786376953 0.013000000268220901,29.01799964904785 C31.069000244140625,29.608999252319336 51.178001403808594,7.833000183105469 59.584999084472656,-18.47100067138672z"></path></g><g opacity="1" transform="matrix(1,0,0,1,69.10399627685547,64.48699951171875)"><path fill="rgb(29,19,6)" fill-opacity="1" d=" M46.67499923706055,-25.533000946044922 C40.518001556396484,-27.81399917602539 10.78499984741211,-28.718000411987305 1.5800000429153442,-28.76099967956543 C-7.541999816894531,-28.804000854492188 -40.5099983215332,-27.801000595092773 -46.64500045776367,-25.51300048828125 C-52.895999908447266,-23.183000564575195 -68.85399627685547,-7.291999816894531 -62.27399826049805,21.792999267578125 C-61.77199935913086,24.01099967956543 -61.17599868774414,26.19099998474121 -60.505001068115234,28.336000442504883 C-48.97600173950195,24.21299934387207 -26.277999877929688,17.391000747680664 -2.359999895095825,17.391000747680664 C-1.5750000476837158,17.391000747680664 -0.7850000262260437,17.398000717163086 0.003000000026077032,17.413000106811523 C26.7549991607666,17.924999237060547 50.94599914550781,25.492000579833984 60.31100082397461,28.804000854492188 C61.04199981689453,26.509000778198242 61.6870002746582,24.179000854492188 62.22600173950195,21.815000534057617 C68.85399627685547,-7.250999927520752 52.928001403808594,-23.215999603271484 46.67499923706055,-25.533000946044922z"></path></g></g></g></svg>
